<?xml version="1.0" encoding="utf-8"?>
<!-- Generator: Adobe Illustrator 21.0.0, SVG Export Plug-In . SVG Version: 6.00 Build 0)  -->
<svg version="1.1" id="_x30_1_x5F_logo_Farbe" xmlns="http://www.w3.org/2000/svg" xmlns:xlink="http://www.w3.org/1999/xlink"
	 x="0px" y="0px" viewBox="0 0 181.3 174" style="enable-background:new 0 0 181.3 174;" xml:space="preserve">
<style type="text/css">
	.st0{fill:#00AEEF;}
	.st1{fill:#FFFFFF;}
	.st2{fill-rule:evenodd;clip-rule:evenodd;fill:#FFFFFF;}
	.st3{fill-rule:evenodd;clip-rule:evenodd;fill:#00AEEF;}
	.st4{fill:none;stroke:#E6E7E8;stroke-width:1.049;}
</style>
<g id="bg-raster">
</g>
<g id="_x30_1_x5F_logo">
	<polyline points="0,0 181.3,0 181.3,174 0,174 	"/>
	<polygon class="st0" points="55.6,114.8 50,114.8 44.3,114.8 32.9,114.8 32.9,103.5 32.9,97.8 32.9,92.2 44.3,92.2 50,92.2 
		55.6,92.2 55.6,97.8 55.6,103.5 	"/>
	<g>
		<path class="st1" d="M19.8,142.9c0-0.3-0.2-0.5-0.3-0.5h-6.9c-0.7,0-1.3-0.5-1.3-1.1v-2.8c0-0.5,0.6-1.1,1.3-1.1h8.7
			c2.3,0,4.6,1.4,4.6,4.4v12.6c0,2.3-1.4,3.9-4.1,3.9h-7.5c-2,0-4.2-1.1-4.2-3.8v-3.8c0-1.4,0-3.7,3.1-4.6l6.4-1.4
			c0.1,0,0.2-0.2,0.2-0.5V142.9z M16.5,149.5c-0.3,0.1-0.4,0.6-0.4,0.8v2.7c0,0.2,0.1,0.3,0.2,0.3h3.4c0.1,0,0.2-0.2,0.2-0.3v-4.2
			L16.5,149.5z"/>
		<path class="st1" d="M46.4,155.6c0,1.6-1.1,2.7-2.9,2.7h-8.4c-2.9,0-5.2-2.2-5.2-5v-11c0-2.5,1.9-5,5.1-5h5.3v-6.2
			c0-0.6,0.5-1.2,1.4-1.2H45c0.6,0,1.4,0.5,1.4,1.2V155.6z M36,152.9c0,0.2,0.1,0.5,0.3,0.5H40c0.2,0,0.2-0.3,0.2-0.5v-10.5h-4
			c-0.2,0-0.3,0.3-0.3,0.5V152.9z"/>
		<path class="st1" d="M60.3,142.9c0-0.3-0.2-0.5-0.3-0.5H53c-0.7,0-1.3-0.5-1.3-1.1v-2.8c0-0.5,0.6-1.1,1.3-1.1h8.7
			c2.3,0,4.6,1.4,4.6,4.4v12.6c0,2.3-1.4,3.9-4.1,3.9h-7.5c-2,0-4.2-1.1-4.2-3.8v-3.8c0-1.4,0-3.7,3.1-4.6l6.4-1.4
			c0.1,0,0.2-0.2,0.2-0.5V142.9z M57,149.5c-0.3,0.1-0.4,0.6-0.4,0.8v2.7c0,0.2,0.1,0.3,0.2,0.3h3.4c0.1,0,0.2-0.2,0.2-0.3v-4.2
			L57,149.5z"/>
		<path class="st1" d="M70.9,140c0-1.6,1-2.6,2.8-2.6h8.5c2.9,0,5.2,2.2,5.2,5v11c0,2.5-1.9,5-5.1,5H77v6.2c0,0.6-0.5,1.2-1.3,1.2
			h-3.4c-0.6,0-1.4-0.5-1.4-1.2V140z M77.1,153.3h4c0.1,0,0.2-0.2,0.2-0.4v-10.1c0-0.3-0.1-0.5-0.3-0.5h-3.8c-0.1,0-0.2,0.2-0.2,0.4
			V153.3z"/>
		<path class="st1" d="M100.4,152.4c0.8,0,1.3,0.6,1.3,1.2v2.9c0,0.7-0.7,1.2-1.3,1.2h-5.9c-1.8,0-3.7-1.3-3.7-3.5v-22.5
			c0-0.5,0.5-1.1,1.1-1.4l3.2-1h0c1.9-0.8,1.9,0.6,1.9,1.3v6.4h3c0.8,0,1.4,0.6,1.4,1.2v2.7c0,0.6-0.6,1.2-1.4,1.2h-3v9.9
			c0,0.3,0.1,0.5,0.3,0.5H100.4z"/>
		<path class="st1" d="M117.5,135.2v21.9c0,0.8-0.8,1.2-1.5,1.2h-3.4c-0.8,0-1.5-0.6-1.5-1.2v-21.9h-6.3c-0.8,0-1.4-0.6-1.4-1.2
			v-2.7c0-0.8,0.7-1.3,1.4-1.3h18.9c0.7,0,1.4,0.5,1.4,1.3v2.7c0,0.6-0.6,1.2-1.4,1.2H117.5z"/>
		<path class="st1" d="M143.3,153.4c0,2.5-1.7,5-5,5H132c-3.5,0-5.1-2.5-5.1-5v-11c0-2.8,2.4-5,5.2-5h6c2.5,0,5.2,2.4,5.2,5V153.4z
			 M137.1,142.9c0-0.2-0.2-0.5-0.5-0.5h-3.3c-0.3,0-0.4,0.3-0.4,0.5v10c0,0.2,0.2,0.5,0.4,0.5h3.3c0.3,0,0.5-0.3,0.5-0.5V142.9z"/>
		<path class="st1" d="M157.9,165.8h-2.2c-1,0-1.4-0.1-1.9-0.9c-3.2-3.8-5.4-10.6-5.4-16.7v-0.4c0-6.1,2.4-13,5.5-16.9
			c0.6-0.8,1-0.8,2-0.8h2.1c0.9,0,1.3,0.6,1.3,1.1c0,0.2-0.1,0.5-0.2,0.7c-1.9,2.7-4.6,10.4-4.6,15.9v0.4c0,5.5,2.7,12.9,4.5,15.7
			c0.1,0.2,0.3,0.6,0.3,0.8C159.2,165.2,158.8,165.8,157.9,165.8z"/>
		<path class="st1" d="M161,163.9c1.9-2.8,4.5-10.2,4.5-15.7v-0.4c0-5.5-2.7-13.1-4.6-15.9c-0.1-0.2-0.2-0.6-0.2-0.7
			c0-0.6,0.4-1.1,1.3-1.1h2.1c1,0,1.4,0.1,2,0.8c3.1,3.9,5.5,10.9,5.5,16.9v0.4c0,6.1-2.2,12.9-5.4,16.7c-0.6,0.8-1,0.9-1.9,0.9
			h-2.2c-0.9,0-1.4-0.6-1.4-1.1C160.7,164.5,160.9,164.1,161,163.9z"/>
	</g>
	<g>
		<g id="Selected_Items_47_">
			<path class="st2" d="M55.6,75.5c0,3.5-0.2,7-0.5,10.4c-0.1,0-0.2,0-0.4,0c-3.5,0.4-7.1,0.6-10.8,0.6c-3.5,0-7-0.2-10.4-0.5
				c0-0.1,0-0.2,0-0.2c-0.4-3.4-0.6-7-0.6-10.5c0-3.7,0.2-7.3,0.6-10.7c3.6-0.4,7.2-0.6,10.9-0.6c3.6,0,7.1,0.2,10.6,0.6
				c0,0.1,0,0.2,0,0.4C55.5,68.3,55.6,71.9,55.6,75.5z"/>
		</g>
	</g>
	<g>
		<g id="Selected_Items_46_">
			<path class="st2" d="M84,103.9c0,3.5-0.2,7-0.5,10.4c-0.1,0-0.2,0-0.4,0c-3.5,0.4-7.1,0.6-10.8,0.6c-3.5,0-7-0.2-10.4-0.5
				c0-0.1,0-0.2,0-0.2c-0.4-3.4-0.6-7-0.6-10.5c0-3.7,0.2-7.3,0.6-10.7c3.6-0.4,7.2-0.6,10.9-0.6c3.6,0,7.1,0.2,10.6,0.6
				c0,0.1,0,0.2,0,0.4C83.8,96.6,84,100.2,84,103.9z"/>
		</g>
	</g>
	<g>
		<g id="Selected_Items_45_">
			<path class="st2" d="M55.6,47.1c0,3.4-0.4,6.7-1.1,9.8c-0.1,0-0.2,0-0.4,0.1c-3.3,0.8-6.7,1.1-10.3,1.1c-3.4,0-6.7-0.3-9.9-1
				c0-0.1,0-0.2-0.1-0.3c-0.7-3.2-1.1-6.5-1.1-10c0-3.6,0.4-7,1.1-10.2c3.3-0.7,6.8-1.1,10.4-1.1c3.5,0,6.8,0.3,10,1
				c0,0.1,0,0.2,0.1,0.4C55.2,40.1,55.6,43.5,55.6,47.1z"/>
		</g>
	</g>
	<g>
		<g id="Selected_Items_44_">
			<path class="st2" d="M112.3,103.8c0,3.4-0.4,6.7-1.1,9.8c-0.1,0-0.2,0-0.4,0.1c-3.3,0.8-6.7,1.1-10.3,1.1c-3.4,0-6.7-0.3-9.9-1
				c0-0.1,0-0.2-0.1-0.3c-0.7-3.2-1.1-6.5-1.1-10c0-3.6,0.4-7,1.1-10.2c3.3-0.7,6.8-1.1,10.4-1.1c3.5,0,6.8,0.3,10,1
				c0,0.1,0,0.2,0.1,0.4C112,96.8,112.3,100.2,112.3,103.8z"/>
		</g>
	</g>
	<g>
		<g id="Selected_Items_43_">
			<path class="st3" d="M84,75.4c0,3.4-0.4,6.7-1.1,9.8c-0.1,0-0.2,0-0.4,0.1c-3.3,0.8-6.7,1.1-10.3,1.1c-3.4,0-6.7-0.3-9.9-1
				c0-0.1,0-0.2-0.1-0.3c-0.7-3.2-1.1-6.5-1.1-10c0-3.6,0.4-7,1.1-10.2c3.3-0.7,6.8-1.1,10.4-1.1c3.5,0,6.8,0.3,10,1
				c0,0.1,0,0.2,0.1,0.4C83.6,68.4,84,71.9,84,75.4z"/>
		</g>
	</g>
	<g>
		<g id="Selected_Items_42_">
			<path class="st2" d="M55.6,18.7c0,3.3-0.5,6.4-1.6,9.3c-0.1,0-0.2,0.1-0.3,0.1c-3,1.1-6.3,1.7-9.7,1.7c-3.3,0-6.5-0.5-9.3-1.6
				c0-0.1-0.1-0.2-0.1-0.2c-1.1-2.9-1.7-6.1-1.7-9.5c0-3.4,0.6-6.7,1.7-9.7c3-1.1,6.3-1.7,9.8-1.7c3.4,0,6.6,0.5,9.5,1.6
				c0,0.1,0.1,0.2,0.1,0.3C55.1,12,55.6,15.3,55.6,18.7z"/>
		</g>
	</g>
	<g>
		<g id="Selected_Items_41_">
			<path class="st2" d="M84,47c0,3.3-0.5,6.4-1.6,9.3c-0.1,0-0.2,0.1-0.3,0.1c-3,1.1-6.3,1.7-9.7,1.7c-3.3,0-6.5-0.5-9.3-1.6
				c0-0.1-0.1-0.2-0.1-0.2c-1.1-2.9-1.7-6.1-1.7-9.5c0-3.4,0.6-6.7,1.7-9.7c3-1.1,6.3-1.7,9.8-1.7c3.4,0,6.6,0.5,9.5,1.6
				c0,0.1,0.1,0.2,0.1,0.3C83.4,40.4,84,43.6,84,47z"/>
		</g>
	</g>
	<g>
		<g id="Selected_Items_40_">
			<path class="st2" d="M112.3,75.4c0,3.3-0.5,6.4-1.6,9.3c-0.1,0-0.2,0.1-0.3,0.1c-3,1.1-6.3,1.7-9.7,1.7c-3.3,0-6.5-0.5-9.3-1.6
				c0-0.1-0.1-0.2-0.1-0.2c-1.1-2.9-1.7-6.1-1.7-9.5c0-3.4,0.6-6.7,1.7-9.7c3-1.1,6.3-1.7,9.8-1.7c3.4,0,6.6,0.5,9.5,1.6
				c0,0.1,0.1,0.2,0.1,0.3C111.8,68.7,112.3,71.9,112.3,75.4z"/>
		</g>
	</g>
	<g>
		<g id="Selected_Items_39_">
			<path class="st2" d="M140.7,103.7c0,3.3-0.5,6.4-1.6,9.3c-0.1,0-0.2,0.1-0.3,0.1c-3,1.1-6.3,1.7-9.7,1.7c-3.3,0-6.5-0.5-9.3-1.6
				c0-0.1-0.1-0.2-0.1-0.2c-1.1-2.9-1.7-6.1-1.7-9.5c0-3.4,0.6-6.7,1.7-9.7c3-1.1,6.3-1.6,9.8-1.7c3.4,0,6.6,0.5,9.5,1.6
				c0,0.1,0.1,0.2,0.1,0.3C140.1,97.1,140.7,100.3,140.7,103.7z"/>
		</g>
	</g>
	<g>
		<g id="Selected_Items_38_">
			<path class="st2" d="M84,18.6c0,3.3-0.7,6.2-2.1,8.9c-0.1,0-0.2,0.1-0.3,0.1c-2.8,1.5-5.8,2.2-9.1,2.2c-3.3,0-6.2-0.7-8.9-2.1
				c0,0-0.1-0.1-0.1-0.2c-1.5-2.7-2.2-5.7-2.2-9.1c0-3.3,0.7-6.3,2.2-9.1c2.7-1.5,5.8-2.2,9.2-2.2c3.3,0,6.2,0.7,8.9,2.1
				c0,0.1,0.1,0.2,0.1,0.3C83.2,12.3,84,15.3,84,18.6z"/>
		</g>
	</g>
	<g>
		<g id="Selected_Items_37_">
			<path class="st3" d="M112.3,46.9c0,3.3-0.7,6.2-2.1,8.9c-0.1,0-0.2,0.1-0.3,0.1c-2.8,1.5-5.8,2.2-9.1,2.2c-3.3,0-6.2-0.7-8.9-2.1
				c0,0-0.1-0.1-0.1-0.2c-1.5-2.7-2.2-5.7-2.2-9.1c0-3.3,0.7-6.3,2.2-9.1c2.7-1.5,5.8-2.2,9.2-2.2c3.3,0,6.2,0.7,8.9,2.1
				c0,0.1,0.1,0.2,0.1,0.3C111.6,40.6,112.3,43.6,112.3,46.9z"/>
		</g>
	</g>
	<g>
		<g id="Selected_Items_36_">
			<path class="st2" d="M140.7,75.3c0,3.3-0.7,6.2-2.1,8.9c-0.1,0-0.2,0.1-0.3,0.1c-2.8,1.5-5.8,2.2-9.1,2.2c-3.3,0-6.2-0.7-8.9-2.1
				c0,0-0.1-0.1-0.1-0.2c-1.5-2.7-2.2-5.7-2.2-9.1c0-3.3,0.7-6.3,2.2-9.1c2.7-1.5,5.8-2.2,9.2-2.2c3.3,0,6.2,0.7,8.9,2.1
				c0,0.1,0.1,0.2,0.1,0.3C139.9,68.9,140.7,72,140.7,75.3z"/>
		</g>
	</g>
	<g>
		<g id="Selected_Items_35_">
			<path class="st2" d="M112.3,18.5c0,3.2-0.9,5.9-2.6,8.3c-0.1,0-0.2,0.1-0.2,0.2c-2.5,1.9-5.3,2.8-8.6,2.8c-3.2,0-6-0.9-8.4-2.6
				c0-0.1-0.1-0.2-0.2-0.2c-1.8-2.5-2.7-5.3-2.7-8.5c0-3.2,0.9-6.1,2.8-8.6c2.5-1.8,5.3-2.7,8.6-2.8c3.1,0,5.9,0.8,8.3,2.5
				c0,0.1,0.1,0.2,0.2,0.2C111.4,12.4,112.3,15.3,112.3,18.5z"/>
		</g>
	</g>
	<g>
		<g id="Selected_Items_34_">
			<path class="st2" d="M140.7,46.8c0,3.2-0.9,5.9-2.6,8.3c-0.1,0-0.2,0.1-0.2,0.2c-2.5,1.9-5.3,2.8-8.6,2.8c-3.2,0-6-0.9-8.4-2.6
				c0-0.1-0.1-0.2-0.2-0.2c-1.8-2.5-2.7-5.3-2.7-8.5c0-3.2,0.9-6.1,2.8-8.6c2.5-1.8,5.3-2.7,8.6-2.8c3.1,0,5.9,0.8,8.3,2.5
				c0,0.1,0.1,0.2,0.2,0.2C139.8,40.8,140.7,43.6,140.7,46.8z"/>
		</g>
	</g>
	<circle class="st3" cx="129.3" cy="18.5" r="11.3"/>
</g>
<g id="text">
	<path class="st4" d="M44.3,103.5"/>
</g>
<g id="abmassung">
</g>
<g id="überschrift">
</g>
</svg>
