<svg width="500" height="500" viewBox="470 340 750 750" fill="none" xmlns="http://www.w3.org/2000/svg">
<path d="M645.535 1050.03H609.48H573.424H501.312V977.909V941.847V905.785H573.424H609.48H645.535V941.847V977.909V1050.03Z" fill="#1B31FF"/>
<path fill-rule="evenodd" clip-rule="evenodd" d="M645.663 800.015C645.663 822.53 644.518 844.473 642.292 865.906C641.529 866.034 640.703 866.161 639.812 866.161C617.301 868.578 594.409 869.786 571.008 869.786C547.606 869.786 526.558 868.641 505.128 866.415C505.001 865.97 504.874 865.461 504.874 864.825C502.457 842.946 501.249 820.559 501.249 797.789C501.249 775.02 502.457 751.615 504.874 729.418C527.512 727.192 550.659 725.92 574.314 725.602C597.27 725.792 619.718 726.937 641.784 729.227C641.911 729.99 642.038 730.817 642.038 731.707C644.454 753.904 645.663 776.674 645.663 800.079V800.015Z" fill="#EDF0FB"/>
<path fill-rule="evenodd" clip-rule="evenodd" d="M825.814 980.326C825.814 1002.84 824.669 1024.78 822.444 1046.22C821.681 1046.34 820.854 1046.47 819.964 1046.47C797.453 1048.89 774.56 1050.1 751.159 1050.1C727.758 1050.1 706.709 1048.95 685.279 1046.73C685.152 1046.28 685.025 1045.77 685.025 1045.14C682.609 1023.26 681.4 1000.93 681.4 978.1C681.4 955.267 682.609 931.925 685.025 909.728C707.663 907.502 730.81 906.23 754.466 905.912C777.422 906.103 799.869 907.248 821.935 909.537C822.062 910.301 822.189 911.127 822.189 912.018C824.606 934.215 825.814 956.984 825.814 980.389V980.326Z" fill="#EDF0FB"/>
<path fill-rule="evenodd" clip-rule="evenodd" d="M645.536 619.26C645.408 641.012 643.119 661.81 638.795 681.781L636.569 682.226C615.902 686.996 594.155 689.413 571.389 689.413C549.514 689.413 528.593 687.25 508.689 682.862C508.562 682.099 508.371 681.526 508.244 681.081C503.602 660.856 501.249 639.613 501.249 617.48C501.249 595.346 503.602 573.022 508.244 552.479C529.229 547.963 551.231 545.61 574.314 545.292C596.507 545.292 617.683 547.454 637.968 551.843C638.095 552.606 638.286 553.369 638.413 554.069C643.183 574.739 645.599 596.491 645.599 619.26H645.536Z" fill="#EDF0FB"/>
<path fill-rule="evenodd" clip-rule="evenodd" d="M1006.16 979.754C1006.03 1001.51 1003.74 1022.3 999.415 1042.27C998.652 1042.46 997.889 1042.59 997.189 1042.72C976.522 1047.49 954.775 1049.91 932.009 1049.91C909.244 1049.91 889.213 1047.74 869.309 1043.36C869.182 1042.59 868.991 1042.02 868.864 1041.57C864.222 1021.35 861.869 1000.11 861.869 977.909C861.869 955.712 864.222 933.452 868.864 912.909C889.849 908.393 911.851 906.04 934.934 905.722C957.127 905.722 978.303 907.884 998.588 912.273C998.716 913.036 998.906 913.735 999.033 914.499C1003.8 935.169 1006.22 956.921 1006.22 979.69L1006.16 979.754Z" fill="#EDF0FB"/>
<path fill-rule="evenodd" clip-rule="evenodd" d="M825.941 799.507C825.814 821.258 823.524 842.056 819.2 862.027C818.437 862.218 817.674 862.345 816.975 862.472C796.308 867.242 774.56 869.659 751.794 869.659C729.029 869.659 708.998 867.497 689.094 863.108C688.967 862.345 688.776 861.773 688.649 861.327C684.007 841.102 681.654 819.859 681.654 797.662C681.654 775.465 684.007 753.205 688.649 732.662C709.634 728.146 731.636 725.793 754.72 725.475C776.913 725.475 798.088 727.637 818.374 732.026C818.501 732.789 818.691 733.552 818.819 734.252C823.588 754.922 826.004 776.674 826.004 799.443L825.941 799.507Z" fill="#1B31FF"/>
<path fill-rule="evenodd" clip-rule="evenodd" d="M645.663 438.505C645.535 459.62 642.229 479.464 635.742 497.845C634.979 497.972 634.343 498.227 633.708 498.545C614.503 505.731 593.9 509.293 571.898 509.102C550.595 509.102 530.818 505.795 512.568 499.181C512.25 498.608 512.059 498.036 511.868 497.59C504.81 478.828 501.312 458.666 501.312 437.106C501.312 415.227 504.81 394.747 511.868 375.73C531.073 368.925 551.74 365.299 573.933 364.981C595.49 364.981 615.584 368.289 634.216 374.84C634.534 375.412 634.725 376.112 634.916 376.875C642.101 396.083 645.726 416.626 645.726 438.505H645.663Z" fill="#EDF0FB"/>
<path fill-rule="evenodd" clip-rule="evenodd" d="M825.941 618.815C825.814 639.931 822.507 659.711 816.021 678.156C815.258 678.283 814.622 678.537 813.986 678.855C794.782 686.042 774.178 689.604 752.176 689.413C730.873 689.413 711.097 686.106 692.846 679.491C692.528 678.919 692.338 678.346 692.147 677.901C685.088 659.139 681.591 638.977 681.591 617.416C681.591 595.537 685.088 575.058 692.147 556.041C711.351 549.172 732.018 545.547 754.211 545.229C775.768 545.229 795.863 548.536 814.495 555.15C814.813 555.723 815.003 556.422 815.194 557.186C822.38 576.393 826.004 596.936 826.004 618.815H825.941Z" fill="#EDF0FB"/>
<path fill-rule="evenodd" clip-rule="evenodd" d="M1006.16 798.998C1006.03 820.114 1002.72 839.957 996.236 858.402C995.473 858.529 994.837 858.783 994.201 859.101C974.996 866.288 954.393 869.786 932.391 869.659C911.088 869.659 891.312 866.352 873.061 859.737C872.743 859.165 872.552 858.593 872.362 858.147C865.303 839.385 861.806 819.223 861.806 797.662C861.806 775.783 865.303 755.304 872.362 736.287C891.566 729.418 912.233 725.793 934.426 725.475C955.983 725.475 976.077 728.782 994.709 735.333C995.027 735.969 995.218 736.605 995.409 737.368C1002.59 756.576 1006.22 777.119 1006.22 798.998H1006.16Z" fill="#EDF0FB"/>
<path fill-rule="evenodd" clip-rule="evenodd" d="M1186.44 979.436C1186.31 1000.55 1183 1020.33 1176.51 1038.78C1175.75 1038.9 1175.12 1039.16 1174.48 1039.48C1155.28 1046.66 1134.67 1050.22 1112.67 1050.03C1091.37 1050.03 1071.59 1046.73 1053.34 1040.11C1053.02 1039.54 1052.83 1038.97 1052.64 1038.52C1045.58 1019.76 1042.08 999.597 1042.08 978.036C1042.08 956.157 1045.58 935.678 1052.64 916.661C1071.85 909.792 1092.51 906.167 1114.71 905.849C1136.26 905.849 1156.36 909.156 1174.99 915.707C1175.31 916.279 1175.5 916.979 1175.69 917.742C1182.87 936.95 1186.5 957.493 1186.5 979.372L1186.44 979.436Z" fill="#EDF0FB"/>
<path fill-rule="evenodd" clip-rule="evenodd" d="M825.941 437.869C825.813 458.73 821.362 477.492 812.65 494.347C812.078 494.665 811.442 494.919 810.87 495.237C793.319 504.65 773.987 509.293 752.875 509.166C732.208 509.166 713.386 504.714 696.471 495.873C696.153 495.555 695.898 495.11 695.58 494.538C686.105 477.302 681.463 458.094 681.654 436.978C681.654 415.99 686.36 396.719 695.835 379.165C713.131 369.879 732.526 365.172 753.956 364.981C774.623 364.981 793.637 369.434 810.806 378.274C811.124 378.847 811.378 379.483 811.696 380.055C821.108 397.609 825.877 416.88 825.877 437.869H825.941Z" fill="#EDF0FB"/>
<path fill-rule="evenodd" clip-rule="evenodd" d="M1006.16 618.052C1006.03 638.914 1001.58 657.676 992.866 674.467C992.294 674.785 991.658 675.039 991.085 675.357C973.534 684.834 954.203 689.477 933.091 689.286C912.424 689.286 893.601 684.834 876.686 675.993C876.368 675.675 876.114 675.23 875.796 674.658C866.385 657.422 861.743 638.214 861.87 617.098C861.87 596.11 866.575 576.839 876.05 559.285C893.411 549.999 912.869 545.229 934.299 545.102C954.966 545.102 973.979 549.554 991.149 558.394C991.467 558.967 991.721 559.603 992.039 560.175C1001.45 577.729 1006.22 597 1006.22 617.989L1006.16 618.052Z" fill="#1B31FF"/>
<path fill-rule="evenodd" clip-rule="evenodd" d="M1186.43 798.362C1186.31 819.223 1181.86 837.986 1173.14 854.84C1172.57 855.158 1171.94 855.412 1171.36 855.73C1153.81 865.207 1134.48 869.85 1113.37 869.659C1092.7 869.659 1073.88 865.207 1056.96 856.366C1056.65 856.048 1056.39 855.603 1056.07 855.031C1046.66 837.795 1042.02 818.587 1042.15 797.471C1042.15 776.483 1046.85 757.212 1056.33 739.658C1073.69 730.372 1093.15 725.602 1114.58 725.475C1135.24 725.475 1154.26 729.927 1171.43 738.767C1171.75 739.403 1172 739.976 1172.32 740.548C1181.73 758.102 1186.5 777.373 1186.5 798.362H1186.43Z" fill="#EDF0FB"/>
<path fill-rule="evenodd" clip-rule="evenodd" d="M1006.16 437.36C1005.84 457.458 1000.31 475.14 989.495 490.404C988.859 490.722 988.35 491.104 987.905 491.549C972.198 503.379 954.011 509.23 933.472 509.103C913.377 509.103 895.636 503.633 880.183 492.694C879.865 492.058 879.484 491.549 879.038 491.104C867.338 475.521 861.551 457.458 861.742 436.915C861.742 416.499 867.592 398.373 879.293 382.472C895.127 370.897 913.377 365.045 934.235 364.918C954.139 364.791 971.88 370.197 987.269 381.137C987.587 381.709 987.969 382.281 988.414 382.727C1000.24 398.754 1006.16 417.008 1006.16 437.36Z" fill="#EDF0FB"/>
<path fill-rule="evenodd" clip-rule="evenodd" d="M1186.43 617.607C1186.12 637.705 1180.58 655.386 1169.77 670.714C1169.14 671.032 1168.63 671.414 1168.18 671.859C1152.48 683.689 1134.29 689.54 1113.75 689.413C1093.66 689.413 1075.91 683.943 1060.46 673.004C1060.14 672.368 1059.76 671.859 1059.32 671.414C1047.62 655.832 1041.83 637.769 1042.02 617.225C1042.02 596.809 1047.87 578.683 1059.57 562.846C1075.28 551.271 1093.59 545.483 1114.45 545.292C1134.35 545.165 1152.1 550.508 1167.48 561.447C1167.8 562.019 1168.18 562.592 1168.63 563.037C1180.46 579.065 1186.37 597.255 1186.37 617.671L1186.43 617.607Z" fill="#EDF0FB"/>
<path d="M1114.2 509.166C1154.02 509.166 1186.31 476.875 1186.31 437.042C1186.31 397.209 1154.02 364.918 1114.2 364.918C1074.37 364.918 1042.08 397.209 1042.08 437.042C1042.08 476.875 1074.37 509.166 1114.2 509.166Z" fill="#1B31FF"/>
<g filter="url(#filter0_f_13542_6)">
<path d="M1113.95 518.262C1158.8 518.262 1195.16 481.899 1195.16 437.043C1195.16 392.186 1158.8 355.823 1113.95 355.823C1069.1 355.823 1032.75 392.186 1032.75 437.043C1032.75 481.899 1069.1 518.262 1113.95 518.262Z" fill="#1B31FF"/>
</g>
<defs>
<filter id="filter0_f_13542_6" x="1021.71" y="344.783" width="184.491" height="184.52" filterUnits="userSpaceOnUse" color-interpolation-filters="sRGB">
<feFlood flood-opacity="0" result="BackgroundImageFix"/>
<feBlend mode="normal" in="SourceGraphic" in2="BackgroundImageFix" result="shape"/>
<feGaussianBlur stdDeviation="5.52029" result="effect1_foregroundBlur_13542_6"/>
</filter>
</defs>
</svg>
