<?xml version="1.0" encoding="utf-8"?>
<svg version="1.1" id="Layer_1"
	 xmlns="http://www.w3.org/2000/svg" xmlns:xlink="http://www.w3.org/1999/xlink" x="0px" y="0px" viewBox="40 0 175 175"
	 style="enable-background:new 0 0 256 256;" xml:space="preserve">
<style type="text/css">
	#background{fill:#343433;}
	.white{fill:#FFFFFF;}
	#blue-dots{fill:#2BACE2;}
</style>
	<g>
		<rect id="background" width="256" height="256"/>
		<g id="logo">
			<path id="white-dots" class="white" d="M81.7,108.7c0,5.3-0.3,10.4-0.8,15.4c-0.2,0-0.4,0.1-0.6,0.1c-5.3,0.6-10.6,0.8-16.1,0.8
				c-5.3,0-10.4-0.3-15.4-0.8c0-0.1-0.1-0.2-0.1-0.4c-0.6-5.1-0.8-10.3-0.8-15.7c0-5.5,0.3-10.8,0.8-16c5.3-0.5,10.7-0.8,16.2-0.9
				c5.4,0,10.6,0.3,15.8,0.8c0,0.2,0.1,0.4,0.1,0.6C81.4,97.9,81.7,103.2,81.7,108.7 M123.8,150.9c0-5.5-0.3-10.8-0.8-16
				c0-0.2,0-0.4-0.1-0.6c-5.2-0.5-10.4-0.8-15.8-0.8c-5.5,0.1-11,0.4-16.2,0.9c-0.6,5.2-0.8,10.5-0.8,16c0,5.3,0.3,10.5,0.8,15.7
				c0,0.1,0,0.3,0.1,0.4c5,0.5,10.1,0.8,15.4,0.8c5.5,0,10.8-0.3,16.1-0.8c0.2,0,0.4,0,0.6-0.1C123.5,161.2,123.8,156.1,123.8,150.9
				 M81.6,66.5c0-5.3-0.6-10.4-1.7-15.2c0-0.2-0.1-0.4-0.1-0.5c-4.7-1-9.7-1.5-14.9-1.5c-5.4,0.1-10.5,0.6-15.5,1.7
				c-1.1,4.8-1.6,9.9-1.6,15.2c0,5.2,0.5,10.1,1.6,14.9c0,0.1,0.1,0.2,0.1,0.4c4.7,1,9.5,1.5,14.7,1.5c5.3,0,10.4-0.6,15.2-1.7
				c0.2,0,0.3-0.1,0.5-0.1C81.1,76.4,81.6,71.5,81.6,66.5 M166,150.7c0-5.3-0.6-10.4-1.7-15.2c0-0.2-0.1-0.4-0.1-0.5
				c-4.7-1-9.7-1.5-14.9-1.5c-5.4,0.1-10.5,0.6-15.5,1.7c-1.1,4.8-1.6,9.9-1.6,15.2c0,5.2,0.5,10.1,1.6,14.9c0,0.1,0.1,0.2,0.1,0.4
				c4.7,1,9.5,1.5,14.7,1.5c5.3,0,10.4-0.6,15.2-1.7c0.2,0,0.4-0.1,0.5-0.1C165.4,160.7,165.9,155.8,166,150.7 M81.7,24.2
				c0-5.1-0.8-9.9-2.5-14.4c0-0.2-0.1-0.3-0.2-0.5C74.6,7.8,69.9,7,64.9,7c-5.2,0.1-10,0.9-14.5,2.5c-1.6,4.5-2.5,9.2-2.5,14.3
				c0,5,0.8,9.8,2.5,14.1c0,0.1,0.1,0.2,0.2,0.4c4.3,1.5,8.9,2.3,13.9,2.3c5.2,0,10-0.8,14.5-2.5c0.1-0.1,0.3-0.1,0.5-0.2
				C80.9,33.8,81.6,29.1,81.7,24.2 M123.8,66.4c0-5.1-0.8-9.9-2.5-14.4c0-0.2-0.1-0.3-0.2-0.5c-4.3-1.5-9-2.3-14.1-2.3
				c-5.2,0.1-10,0.9-14.5,2.5c-1.6,4.5-2.5,9.2-2.5,14.4c0,5,0.8,9.8,2.5,14.1c0,0.1,0.1,0.2,0.2,0.4c4.3,1.5,8.9,2.3,13.9,2.3
				c5.2,0,10-0.8,14.5-2.5c0.1-0.1,0.3-0.1,0.5-0.2C123,75.9,123.8,71.3,123.8,66.4 M166,108.5c0-5.1-0.8-9.9-2.5-14.4
				c0-0.2-0.1-0.3-0.2-0.5c-4.3-1.5-9-2.3-14.1-2.3c-5.2,0.1-10,0.9-14.5,2.5c-1.6,4.5-2.5,9.2-2.5,14.4c0,5,0.8,9.8,2.5,14.1
				c0,0.1,0.1,0.2,0.2,0.4c4.3,1.5,8.9,2.3,13.9,2.3c5.1,0,10-0.8,14.5-2.5c0.1-0.1,0.3-0.1,0.5-0.2
				C165.2,118,165.9,113.4,166,108.5 M208.1,150.6c0-5.1-0.8-9.9-2.5-14.4c0-0.2-0.1-0.3-0.2-0.5c-4.3-1.5-9-2.3-14.1-2.3
				c-5.2,0.1-10,0.9-14.5,2.5c-1.6,4.5-2.5,9.2-2.5,14.4c0,5,0.8,9.8,2.5,14.1c0,0.1,0.1,0.2,0.2,0.4c4.3,1.5,8.9,2.3,13.9,2.3
				c5.2,0,10-0.8,14.5-2.5c0.1-0.1,0.3-0.1,0.5-0.2C207.3,160.2,208.1,155.6,208.1,150.6 M123.8,24.1c0-4.9-1.1-9.4-3.3-13.5
				c-0.1-0.1-0.1-0.3-0.2-0.4c-4-2.1-8.5-3.1-13.3-3.1c-5,0-9.5,1.1-13.6,3.3c-2.2,4.1-3.3,8.6-3.3,13.5c0,4.9,1.1,9.4,3.3,13.5
				c0.1,0.1,0.1,0.2,0.2,0.3c4,2.1,8.4,3.1,13.2,3.1c4.9,0,9.5-1.1,13.6-3.3c0.1-0.1,0.3-0.1,0.4-0.2
				C122.7,33.3,123.8,28.9,123.8,24.1 M208.1,108.3c0-4.9-1.1-9.4-3.3-13.5c-0.1-0.1-0.1-0.3-0.2-0.4c-4-2.1-8.5-3.1-13.3-3.1
				c-5,0-9.5,1.1-13.6,3.3c-2.2,4.1-3.3,8.6-3.3,13.5c0,4.9,1,9.4,3.3,13.5c0.1,0.1,0.1,0.2,0.2,0.3c4,2.1,8.4,3.1,13.2,3.1
				c4.9,0,9.5-1.1,13.6-3.3c0.1-0.1,0.3-0.1,0.4-0.2C207,117.6,208.1,113.2,208.1,108.3 M166,23.9c0-4.8-1.4-9-4.2-12.8
				c-0.1-0.1-0.2-0.2-0.3-0.4c-3.6-2.6-7.7-3.8-12.4-3.8c-4.9,0-9.1,1.4-12.8,4.1c-2.7,3.7-4.1,8-4.1,12.7c0,4.8,1.3,9,4,12.7
				c0.1,0.1,0.2,0.2,0.3,0.4c3.6,2.6,7.8,3.8,12.5,3.8c4.8,0,9-1.3,12.7-4.1c0.1-0.1,0.2-0.2,0.4-0.3
				C164.6,32.8,165.9,28.6,166,23.9 M208.1,66.1c0-4.8-1.4-9-4.2-12.8c-0.1-0.1-0.2-0.2-0.3-0.4c-3.6-2.6-7.7-3.8-12.4-3.8
				c-4.9,0-9.1,1.4-12.8,4.1c-2.7,3.7-4.1,8-4.1,12.7c0,4.8,1.3,9,4,12.7c0.1,0.1,0.2,0.2,0.3,0.4c3.6,2.6,7.8,3.8,12.5,3.8
				c4.8,0,9-1.3,12.7-4.1c0.1-0.1,0.2-0.2,0.4-0.3C206.7,74.9,208,70.8,208.1,66.1"/>
			<path id="blue-dots" class="st2" d="M208.1,23.9c0,9.3-7.5,16.9-16.9,16.9c-9.3,0-16.9-7.5-16.9-16.9c0-9.3,7.5-16.9,16.9-16.9
				C200.5,7,208.1,14.5,208.1,23.9 M166,66.2c0-4.9-1.1-9.4-3.3-13.5c-0.1-0.1-0.1-0.3-0.2-0.4c-4-2.1-8.5-3.1-13.3-3.1
				c-5,0-9.6,1.1-13.6,3.3c-2.2,4.1-3.3,8.6-3.3,13.5c0,4.9,1.1,9.4,3.3,13.5c0.1,0.1,0.1,0.2,0.2,0.3c4,2.1,8.4,3.1,13.2,3.1
				c4.9,0,9.5-1.1,13.6-3.3c0.1-0.1,0.3-0.1,0.4-0.2C164.9,75.4,165.9,71,166,66.2 M123.8,108.6c0-5.3-0.6-10.4-1.7-15.2
				c0-0.2-0.1-0.4-0.1-0.5c-4.7-1-9.7-1.5-14.9-1.5c-5.4,0.1-10.5,0.6-15.5,1.7c-1.1,4.8-1.6,9.9-1.6,15.2c0,5.2,0.5,10.1,1.6,14.9
				c0,0.1,0.1,0.2,0.1,0.4c4.7,1,9.6,1.5,14.7,1.5c5.3,0,10.4-0.6,15.2-1.7c0.2,0,0.4-0.1,0.5-0.1
				C123.2,118.5,123.8,113.7,123.8,108.6 M81.6,150.3v-8.4v-8.4h-8.4h-8.4H47.9v8.4v8.4v16.9h16.9h8.4h8.4V150.3z"/>
		</g>
	</g>

</svg>
